<?xml version="1.0" encoding="iso-8859-1"?>
<!-- Generator: Adobe Illustrator 28.3.0, SVG Export Plug-In . SVG Version: 6.00 Build 0)  -->
<svg version="1.1" id="Layer_1" xmlns="http://www.w3.org/2000/svg" xmlns:xlink="http://www.w3.org/1999/xlink" x="0px" y="0px"
	 viewBox="0 0 1500 300" style="enable-background:new 0 0 1500 300;" xml:space="preserve">
<g>
	<path style="fill:#FFFFFF;" d="M0,0v300h1500V0H0z M228.698,275l-78.016-59.886l-76.492,57.611l28.276-94.623l-78.016-59.886
		l95.492,1.406L148.216,25l30.741,95.492l95.492,1.406l-76.492,57.611L228.698,275z M528.698,275l-78.016-59.886l-76.492,57.611
		l28.276-94.623l-78.016-59.886l95.492,1.406L448.216,25l30.741,95.492l95.492,1.406l-76.492,57.611L528.698,275z M828.698,275
		l-78.016-59.886l-76.492,57.611l28.276-94.623l-78.016-59.886l95.492,1.406L748.216,25l30.741,95.492l95.492,1.406l-76.492,57.611
		L828.698,275z M1128.698,275l-78.016-59.886l-76.492,57.611l28.276-94.623l-78.016-59.886l95.491,1.406L1048.216,25l30.741,95.492
		l95.491,1.406l-76.492,57.611L1128.698,275z M1428.698,275l-78.016-59.886l-76.492,57.611l28.276-94.623l-78.016-59.886
		l95.491,1.406L1348.216,25l30.741,95.492l95.491,1.406l-76.492,57.611L1428.698,275z"/>
</g>
</svg>
